mtllib MagicalHats.mtl
o MagicalHat
v 47.387 147.832 34.138
v 41.658 151.046 49.154
v 31.023 153.701 61.339
v 16.764 155.478 69.222
v 0.601 156.162 71.855
v -15.517 155.671 68.917
v -29.644 154.064 60.765
v -40.078 151.535 48.381
v -45.560 148.389 33.258
v -45.428 145.005 17.222
v -39.699 141.792 2.206
v -29.064 139.137 -9.979
v -14.805 137.359 -17.863
v 1.358 136.675 -20.495
v 17.475 137.166 -17.558
v 31.603 138.773 -9.405
v 42.037 141.302 2.979
v 47.518 144.448 18.102
v 40.097 149.546 -21.734
v 22.098 147.499 -32.121
v 1.564 146.873 -35.863
v -19.028 147.746 -32.510
v -37.194 150.010 -22.466
v -50.744 153.392 -6.941
v -58.043 157.486 12.189
v -58.210 161.797 32.620
v -51.227 165.805 51.887
v -37.933 169.028 67.665
v -19.934 171.075 78.052
v 0.600 171.700 81.793
v 21.192 170.829 78.441
v 39.359 168.565 68.396
v 52.908 165.182 52.872
v 60.207 161.088 33.741
v 60.374 156.776 13.310
v 53.390 152.768 -5.956
v 52.277 16.173 -9.441
v 70.074 20.488 11.684
v 69.988 9.636 13.973
v 52.189 5.322 -7.152
v 79.425 25.854 37.477
v 79.337 15.002 39.766
v 79.200 31.626 64.830
v 79.113 20.774 67.119
v 69.428 37.107 90.442
v 69.341 26.255 92.732
v 51.288 41.636 111.227
v 51.201 30.784 113.515
v 26.966 44.667 124.674
v 26.879 33.815 126.963
v -0.603 45.834 129.164
v -0.689 34.982 131.452
v -28.093 44.997 124.154
v -28.180 34.145 126.443
v -52.191 42.256 110.247
v -52.278 31.404 112.536
v -69.988 37.943 89.124
v -70.075 27.091 91.413
v -79.338 32.575 63.330
v -79.425 21.723 65.619
v -79.114 26.804 35.977
v -79.200 15.952 38.266
v -69.342 21.323 10.364
v -69.428 10.471 12.653
v -51.201 16.794 -10.420
v -51.288 5.942 -8.131
v -26.880 13.763 -23.868
v -26.966 2.911 -21.578
v 0.689 12.595 -28.356
v 0.602 1.744 -26.068
v 28.180 13.433 -23.347
v 28.093 2.581 -21.057
v 36.678 22.064 8.029
v 49.155 25.089 22.838
v 69.043 22.611 11.842
v 51.512 18.361 -8.967
v 55.710 28.850 40.921
v 78.253 27.897 37.250
v 55.553 32.897 60.098
v 78.033 33.582 64.194
v 48.702 36.740 78.054
v 68.408 38.981 89.424
v 35.985 39.916 92.624
v 50.538 43.443 109.897
v 18.934 42.040 102.051
v 26.579 46.429 123.144
v -0.394 42.859 105.199
v -0.576 47.578 127.566
v -19.667 42.271 101.686
v -27.657 46.753 122.630
v -36.560 40.350 91.938
v -51.394 44.053 108.933
v -49.037 37.326 77.129
v -68.925 39.804 88.124
v -55.592 33.563 59.045
v -78.136 34.517 62.717
v -55.435 29.517 39.869
v -77.915 28.832 35.772
v -48.584 25.674 21.913
v -68.289 23.433 10.542
v -35.867 22.500 7.342
v -50.420 18.972 -9.931
v -18.815 20.374 -2.085
v -26.462 15.986 -23.177
v 0.512 19.556 -5.232
v 0.695 14.836 -27.600
v 19.785 20.143 -1.720
v 27.776 15.662 -22.664
v 49.037 10.252 25.968
v 36.560 7.228 11.158
v 51.393 3.525 -5.837
v 68.925 7.774 14.972
v 19.666 5.307 1.410
v 27.657 0.825 -19.534
v 0.394 4.720 -2.103
v 0.576 0.000 -24.470
v -18.934 5.537 1.044
v -26.580 1.149 -20.048
v -35.985 7.663 10.472
v -50.538 4.135 -6.802
v -48.703 10.838 25.042
v -68.407 8.597 13.671
v -55.554 14.680 42.999
v -78.033 13.996 38.901
v -55.710 18.726 62.175
v -78.254 19.682 65.845
v -49.155 22.489 80.258
v -69.044 24.968 91.254
v -36.679 25.513 95.067
v -51.512 29.216 112.062
v -19.785 27.435 104.816
v -27.776 31.917 125.760
v -0.512 28.022 108.329
v -0.696 32.742 130.696
v 18.815 27.203 105.181
v 26.461 31.592 126.273
v 35.866 25.079 95.754
v 50.419 28.606 113.027
v 48.584 21.903 81.183
v 68.289 24.145 92.554
v 55.434 18.061 63.228
v 77.914 18.746 67.324
v 55.591 14.014 44.051
v 78.135 13.060 40.380
v 36.560 7.228 11.158
v 49.037 10.252 25.968
v 49.116 20.214 23.866
v 36.640 17.190 9.057
v 55.591 14.014 44.051
v 55.672 23.976 41.950
v 55.434 18.061 63.228
v 55.514 28.023 61.126
v 48.584 21.903 81.183
v 48.664 31.865 79.082
v 35.866 25.079 95.754
v 35.946 35.041 93.652
v 18.815 27.203 105.181
v 18.895 37.165 103.080
v -0.512 28.022 108.329
v -0.433 37.983 106.227
v -19.785 27.435 104.816
v -19.705 37.397 102.714
v -36.679 25.513 95.067
v -36.599 35.475 92.965
v -49.155 22.489 80.258
v -49.076 32.450 78.157
v -55.710 18.726 62.175
v -55.631 28.688 60.073
v -55.554 14.680 42.999
v -55.474 24.642 40.897
v -48.703 10.838 25.042
v -48.623 20.799 22.941
v -35.985 7.663 10.472
v -35.905 17.625 8.370
v -18.934 5.537 1.044
v -18.855 15.499 -1.057
v 0.394 4.720 -2.103
v 0.308 14.554 -4.338
v 19.666 5.307 1.410
v 19.953 15.152 -0.757
v 42.037 141.302 2.979
v 31.603 138.773 -9.405
v 47.518 144.448 18.102
v 47.387 147.832 34.138
v 41.658 151.046 49.154
v 31.023 153.701 61.339
v 16.764 155.478 69.222
v 0.601 156.162 71.855
v -15.517 155.671 68.917
v -29.644 154.064 60.765
v -40.078 151.535 48.381
v -45.560 148.389 33.258
v -45.428 145.005 17.222
v -39.699 141.792 2.206
v -29.064 139.137 -9.979
v -14.805 137.359 -17.863
v 1.358 136.675 -20.495
v 17.475 137.166 -17.558
v 52.277 16.173 -9.441
v 51.512 18.361 -8.967
v 69.043 22.611 11.842
v 70.074 20.488 11.684
v 78.253 27.897 37.250
v 79.425 25.854 37.477
v 78.033 33.582 64.194
v 79.200 31.626 64.830
v 68.408 38.981 89.424
v 69.428 37.107 90.442
v 50.538 43.443 109.897
v 51.288 41.636 111.227
v 26.579 46.429 123.144
v 26.966 44.667 124.674
v -0.576 47.578 127.566
v -0.603 45.834 129.164
v -27.657 46.753 122.630
v -28.093 44.997 124.154
v -51.394 44.053 108.933
v -52.191 42.256 110.247
v -68.925 39.804 88.124
v -69.988 37.943 89.124
v -78.136 34.517 62.717
v -79.338 32.575 63.330
v -77.915 28.832 35.772
v -79.114 26.804 35.977
v -68.289 23.433 10.542
v -69.342 21.323 10.364
v -50.420 18.972 -9.931
v -51.201 16.794 -10.420
v -26.462 15.986 -23.177
v -26.880 13.763 -23.868
v 0.695 14.836 -27.600
v 0.689 12.595 -28.356
v 27.776 15.662 -22.664
v 28.180 13.433 -23.347
v 69.988 9.636 13.973
v 68.925 7.774 14.972
v 51.393 3.525 -5.837
v 52.189 5.322 -7.152
v 27.657 0.825 -19.534
v 28.093 2.581 -21.057
v 0.576 0.000 -24.470
v 0.602 1.744 -26.068
v -26.580 1.149 -20.048
v -26.966 2.911 -21.578
v -50.538 4.135 -6.802
v -51.288 5.942 -8.131
v -68.407 8.597 13.671
v -69.428 10.471 12.653
v -78.033 13.996 38.901
v -79.200 15.952 38.266
v -78.254 19.682 65.845
v -79.425 21.723 65.619
v -69.044 24.968 91.254
v -70.075 27.091 91.413
v -51.512 29.216 112.062
v -52.278 31.404 112.536
v -27.776 31.917 125.760
v -28.180 34.145 126.443
v -0.696 32.742 130.696
v -0.689 34.982 131.452
v 26.461 31.592 126.273
v 26.879 33.815 126.963
v 50.419 28.606 113.027
v 51.201 30.784 113.515
v 68.289 24.145 92.554
v 69.341 26.255 92.732
v 77.914 18.746 67.324
v 79.113 20.774 67.119
v 78.135 13.060 40.380
v 79.337 15.002 39.766
v 54.099 152.208 -6.251
v 54.101 150.792 -5.960
v 40.623 147.525 -21.957
v 40.625 148.942 -22.244
v 40.625 148.942 -22.244
v 40.623 147.525 -21.957
v 22.375 145.449 -32.487
v 22.381 146.867 -32.772
v 22.381 146.867 -32.772
v 22.375 145.449 -32.487
v 1.556 144.815 -36.281
v 1.567 146.233 -36.565
v 1.567 146.233 -36.565
v 1.556 144.815 -36.281
v -19.321 145.699 -32.882
v -19.306 147.117 -33.166
v -19.306 147.117 -33.166
v -19.321 145.699 -32.882
v -37.740 147.995 -22.698
v -37.719 149.411 -22.985
v -37.719 149.411 -22.985
v -37.740 147.995 -22.698
v -51.477 151.424 -6.959
v -51.454 152.841 -7.250
v -51.454 152.841 -7.250
v -51.477 151.424 -6.959
v -58.878 155.575 12.438
v -58.852 156.990 12.142
v -58.852 156.990 12.142
v -58.878 155.575 12.438
v -59.047 159.946 33.152
v -59.022 161.360 32.851
v -59.022 161.360 32.851
v -59.047 159.946 33.152
v -51.966 164.010 52.686
v -51.943 165.423 52.380
v -51.943 165.423 52.380
v -51.966 164.010 52.686
v -38.489 167.277 68.682
v -38.469 168.689 68.373
v -38.469 168.689 68.373
v -38.489 167.277 68.682
v -20.240 169.353 79.213
v -20.224 170.764 78.901
v -20.224 170.764 78.901
v -20.240 169.353 79.213
v 0.578 169.987 83.007
v 0.589 171.399 82.695
v 0.589 171.399 82.695
v 0.578 169.987 83.007
v 21.456 169.103 79.608
v 21.462 170.515 79.296
v 21.462 170.515 79.296
v 21.456 169.103 79.608
v 39.874 166.808 69.424
v 39.876 168.220 69.115
v 39.876 168.220 69.115
v 39.874 166.808 69.424
v 53.612 163.378 53.684
v 53.611 164.791 53.379
v 53.611 164.791 53.379
v 53.612 163.378 53.684
v 61.011 159.227 34.288
v 61.008 160.641 33.987
v 61.008 160.641 33.987
v 61.011 159.227 34.288
v 61.181 154.856 13.574
v 61.179 156.271 13.278
v 61.179 156.271 13.278
v 61.181 154.856 13.574
v 54.101 150.792 -5.960
v 54.099 152.208 -6.251
v 54.099 152.208 -6.251
v 40.625 148.942 -22.244
v 40.625 148.942 -22.244
v 22.381 146.867 -32.772
v 22.381 146.867 -32.772
v 1.567 146.233 -36.565
v 1.567 146.233 -36.565
v -19.306 147.117 -33.166
v -19.306 147.117 -33.166
v -37.719 149.411 -22.985
v -37.719 149.411 -22.985
v -51.454 152.841 -7.250
v -51.454 152.841 -7.250
v -58.852 156.990 12.142
v -58.852 156.990 12.142
v -59.022 161.360 32.851
v -59.022 161.360 32.851
v -51.943 165.423 52.380
v -51.943 165.423 52.380
v -38.469 168.689 68.373
v -38.469 168.689 68.373
v -20.224 170.764 78.901
v -20.224 170.764 78.901
v 0.589 171.399 82.695
v 0.589 171.399 82.695
v 21.462 170.515 79.296
v 21.462 170.515 79.296
v 39.876 168.220 69.115
v 39.876 168.220 69.115
v 53.611 164.791 53.379
v 53.611 164.791 53.379
v 61.008 160.641 33.987
v 61.008 160.641 33.987
v 61.179 156.271 13.278
v 61.179 156.271 13.278
v 54.099 152.208 -6.251
v 43.729 10.992 -41.485
v 20.461 25.517 -36.085
v 16.244 16.768 -30.728
v -5.261 36.025 -39.177
v -9.478 27.276 -33.820
v -30.331 41.248 -50.388
v -34.549 32.500 -45.031
v 15.156 17.166 -58.116
v 20.931 26.625 -38.121
v -2.876 24.533 -60.283
v -4.405 36.976 -41.166
v -29.102 42.121 -52.210
v -26.219 16.235 -60.818
v -8.642 12.573 -52.959
v -10.172 25.015 -33.843
v 9.390 5.206 -50.792
v 15.165 14.665 -30.798
v 38.086 0.356 -36.117
v 9.390 5.206 -50.792
v 13.262 13.236 -55.709
v -8.642 12.573 -52.959
v -4.771 20.603 -57.877
v -22.348 24.265 -65.736
v 27.820 115.441 -131.452
v 43.729 10.992 -41.485
v 20.931 26.625 -38.121
v 20.461 25.517 -36.085
v -4.405 36.976 -41.166
v -5.261 36.025 -39.177
v -29.102 42.121 -52.210
v -30.331 41.248 -50.388
v -34.868 30.161 -44.886
v -34.549 32.500 -45.031
v -10.172 25.015 -33.843
v -9.478 27.276 -33.820
v 15.165 14.665 -30.798
v 16.244 16.768 -30.728
v 38.086 0.356 -36.117
v 49.155 25.089 22.838
v 36.678 22.064 8.029
v 35.781 53.930 2.684
v 47.866 56.860 17.028
v 19.785 20.143 -1.720
v 19.418 52.069 -6.759
v 0.512 19.556 -5.232
v 0.750 51.500 -10.160
v -18.815 20.374 -2.085
v -17.971 52.293 -7.112
v -35.867 22.500 7.342
v -34.486 54.352 2.020
v -35.867 22.500 7.342
v -48.584 25.674 21.913
v -46.805 57.427 16.132
v -34.486 54.352 2.020
v -55.435 29.517 39.869
v -53.440 61.149 33.525
v -55.592 33.563 59.045
v -53.593 65.068 52.099
v -49.037 37.326 77.129
v -47.244 68.712 69.615
v -36.560 40.350 91.938
v -35.159 71.641 83.959
v -19.667 42.271 101.686
v -18.795 73.502 93.402
v -0.394 42.859 105.199
v -0.127 74.071 96.804
v 18.934 42.040 102.051
v 18.594 73.278 93.755
v 35.985 39.916 92.624
v 35.109 71.221 84.624
v 48.702 36.740 78.054
v 47.428 68.145 70.510
v 55.553 32.897 60.098
v 54.063 64.423 53.118
v 55.710 28.850 40.921
v 54.215 60.504 34.544
v 35.009 86.182 -2.888
v 46.744 89.026 11.041
v 19.119 84.375 -12.057
v 0.992 83.822 -15.361
v -17.186 84.593 -12.400
v -33.223 86.590 -3.534
v -45.185 89.577 10.171
v -33.223 86.590 -3.534
v -51.628 93.191 27.059
v -51.776 96.997 45.096
v -45.611 100.536 62.104
v -33.876 103.381 76.033
v -17.986 105.188 85.202
v 0.141 105.739 88.506
v 18.320 104.970 85.546
v 34.357 102.971 76.679
v 46.318 99.985 62.974
v 52.762 96.371 46.085
v 52.910 92.565 28.049
v 36.292 117.920 -10.814
v 48.377 120.850 3.530
v 19.928 116.059 -20.257
v 1.261 115.491 -23.659
v -17.460 116.283 -20.611
v -33.975 118.342 -11.479
v -46.293 121.418 2.634
v -33.975 118.342 -11.479
v -52.930 125.139 20.027
v -53.082 129.059 38.600
v -46.733 132.703 56.116
v -34.647 135.632 70.460
v -18.284 137.493 79.903
v 0.384 138.062 83.306
v 19.105 137.269 80.258
v 35.620 135.211 71.125
v 47.938 132.136 57.012
v 54.575 128.413 39.620
v 54.726 124.495 21.046
v 40.623 147.525 -21.957
v 54.101 150.792 -5.960
v 22.375 145.449 -32.487
v 1.556 144.815 -36.281
v -19.321 145.699 -32.882
v -37.740 147.995 -22.698
v -51.477 151.424 -6.959
v -37.740 147.995 -22.698
v -58.878 155.575 12.438
v -59.047 159.946 33.152
v -51.966 164.010 52.686
v -38.489 167.277 68.682
v -20.240 169.353 79.213
v 0.578 169.987 83.007
v 21.456 169.103 79.608
v 39.874 166.808 69.424
v 53.612 163.378 53.684
v 61.011 159.227 34.288
v 61.181 154.856 13.574
v -20.453 28.195 -68.142
v -7.510 52.572 -84.965
v -2.876 24.533 -60.283
v 9.516 49.025 -77.352
v 15.156 17.166 -58.116
v 26.982 41.889 -75.253
v 5.525 77.400 -101.862
v 22.056 73.956 -94.470
vt 0.82139 0.11698
vt 0.93301 0.25000
vt 0.99240 0.41318
vt 0.99240 0.58682
vt 0.93301 0.75000
vt 0.82139 0.88302
vt 0.67101 0.96985
vt 0.50000 1.00000
vt 0.32899 0.96985
vt 0.17861 0.88302
vt 0.06699 0.75000
vt 0.00760 0.58682
vt 0.00760 0.41318
vt 0.06699 0.25000
vt 0.17861 0.11698
vt 0.32899 0.03015
vt 0.50000 0.00000
vt 0.67101 0.03015
vt 0.33240 0.03951
vt 0.18501 0.12461
vt 0.07561 0.25498
vt 0.01740 0.41491
vt 0.01740 0.58510
vt 0.07561 0.74502
vt 0.18501 0.87539
vt 0.33240 0.96049
vt 0.50000 0.99004
vt 0.66760 0.96049
vt 0.81499 0.87539
vt 0.92439 0.74502
vt 0.98260 0.58510
vt 0.98260 0.41491
vt 0.92439 0.25498
vt 0.81499 0.12461
vt 0.66760 0.03951
vt 0.50000 0.00996
vt 0.32899 0.03015
vt 0.50000 0.00000
vt 0.50000 0.00000
vt 0.32899 0.03015
vt 0.67101 0.03015
vt 0.67101 0.03015
vt 0.82139 0.11698
vt 0.82139 0.11698
vt 0.93301 0.25000
vt 0.93301 0.25000
vt 0.99240 0.41318
vt 0.99240 0.41318
vt 0.99240 0.58682
vt 0.99240 0.58682
vt 0.93301 0.75000
vt 0.93301 0.75000
vt 0.82139 0.88302
vt 0.82139 0.88302
vt 0.67101 0.96985
vt 0.67101 0.96985
vt 0.50000 1.00000
vt 0.50000 1.00000
vt 0.32899 0.96985
vt 0.32899 0.96985
vt 0.17861 0.88302
vt 0.17861 0.88302
vt 0.06699 0.75000
vt 0.06699 0.75000
vt 0.00760 0.58682
vt 0.00760 0.58682
vt 0.00760 0.41318
vt 0.00760 0.41318
vt 0.06699 0.25000
vt 0.06699 0.25000
vt 0.17861 0.11698
vt 0.17861 0.11698
vt 0.32899 0.03015
vt 0.50000 0.00000
vt 0.50000 0.00000
vt 0.32899 0.03015
vt 0.67101 0.03015
vt 0.67101 0.03015
vt 0.82139 0.11698
vt 0.82139 0.11698
vt 0.93301 0.25000
vt 0.93301 0.25000
vt 0.99240 0.41318
vt 0.99240 0.41318
vt 0.99240 0.58682
vt 0.99240 0.58682
vt 0.93301 0.75000
vt 0.93301 0.75000
vt 0.82139 0.88302
vt 0.82139 0.88302
vt 0.67101 0.96985
vt 0.67101 0.96985
vt 0.50000 1.00000
vt 0.50000 1.00000
vt 0.32899 0.96985
vt 0.32899 0.96985
vt 0.17861 0.88302
vt 0.17861 0.88302
vt 0.06699 0.75000
vt 0.06699 0.75000
vt 0.00760 0.58682
vt 0.00760 0.58682
vt 0.00760 0.41318
vt 0.00760 0.41318
vt 0.06699 0.25000
vt 0.06699 0.25000
vt 0.17861 0.11698
vt 0.17861 0.11698
vt 0.50000 0.00000
vt 0.32899 0.03015
vt 0.32899 0.03015
vt 0.50000 0.00000
vt 0.17861 0.11698
vt 0.17861 0.11698
vt 0.06699 0.25000
vt 0.06699 0.25000
vt 0.00760 0.41318
vt 0.00760 0.41318
vt 0.00760 0.58682
vt 0.00760 0.58682
vt 0.06699 0.75000
vt 0.06699 0.75000
vt 0.17861 0.88302
vt 0.17861 0.88302
vt 0.32899 0.96985
vt 0.32899 0.96985
vt 0.50000 1.00000
vt 0.50000 1.00000
vt 0.67101 0.96985
vt 0.67101 0.96985
vt 0.82139 0.88302
vt 0.82139 0.88302
vt 0.93301 0.75000
vt 0.93301 0.75000
vt 0.99240 0.58682
vt 0.99240 0.58682
vt 0.99240 0.41318
vt 0.99240 0.41318
vt 0.93301 0.25000
vt 0.93301 0.25000
vt 0.82139 0.11698
vt 0.82139 0.11698
vt 0.67101 0.03015
vt 0.67101 0.03015
vt 0.32899 0.03015
vt 0.50000 0.00000
vt 0.50000 0.00000
vt 0.32899 0.03015
vt 0.67101 0.03015
vt 0.67101 0.03015
vt 0.82139 0.11698
vt 0.82139 0.11698
vt 0.93301 0.25000
vt 0.93301 0.25000
vt 0.99240 0.41318
vt 0.99240 0.41318
vt 0.99240 0.58682
vt 0.99240 0.58682
vt 0.93301 0.75000
vt 0.93301 0.75000
vt 0.82139 0.88302
vt 0.82139 0.88302
vt 0.67101 0.96985
vt 0.67101 0.96985
vt 0.50000 1.00000
vt 0.50000 1.00000
vt 0.32899 0.96985
vt 0.32899 0.96985
vt 0.17861 0.88302
vt 0.17861 0.88302
vt 0.06699 0.75000
vt 0.06699 0.75000
vt 0.00760 0.58682
vt 0.00760 0.58682
vt 0.00760 0.41318
vt 0.00760 0.41318
vt 0.06699 0.25000
vt 0.06699 0.25000
vt 0.17861 0.11698
vt 0.17861 0.11698
vt 0.50000 0.00000
vt 0.32899 0.03015
vt 0.67101 0.03015
vt 0.82139 0.11698
vt 0.93301 0.25000
vt 0.99240 0.41318
vt 0.99240 0.58682
vt 0.93301 0.75000
vt 0.82139 0.88302
vt 0.67101 0.96985
vt 0.50000 1.00000
vt 0.32899 0.96985
vt 0.17861 0.88302
vt 0.06699 0.75000
vt 0.00760 0.58682
vt 0.00760 0.41318
vt 0.06699 0.25000
vt 0.17861 0.11698
vt 0.32899 0.03015
vt 0.32899 0.03015
vt 0.50000 0.00000
vt 0.50000 0.00000
vt 0.67101 0.03015
vt 0.67101 0.03015
vt 0.82139 0.11698
vt 0.82139 0.11698
vt 0.93301 0.25000
vt 0.93301 0.25000
vt 0.99240 0.41318
vt 0.99240 0.41318
vt 0.99240 0.58682
vt 0.99240 0.58682
vt 0.93301 0.75000
vt 0.93301 0.75000
vt 0.82139 0.88302
vt 0.82139 0.88302
vt 0.67101 0.96985
vt 0.67101 0.96985
vt 0.50000 1.00000
vt 0.50000 1.00000
vt 0.32899 0.96985
vt 0.32899 0.96985
vt 0.17861 0.88302
vt 0.17861 0.88302
vt 0.06699 0.75000
vt 0.06699 0.75000
vt 0.00760 0.58682
vt 0.00760 0.58682
vt 0.00760 0.41318
vt 0.00760 0.41318
vt 0.06699 0.25000
vt 0.06699 0.25000
vt 0.17861 0.11698
vt 0.17861 0.11698
vt 0.50000 0.00000
vt 0.50000 0.00000
vt 0.32899 0.03015
vt 0.32899 0.03015
vt 0.17861 0.11698
vt 0.17861 0.11698
vt 0.06699 0.25000
vt 0.06699 0.25000
vt 0.00760 0.41318
vt 0.00760 0.41318
vt 0.00760 0.58682
vt 0.00760 0.58682
vt 0.06699 0.75000
vt 0.06699 0.75000
vt 0.17861 0.88302
vt 0.17861 0.88302
vt 0.32899 0.96985
vt 0.32899 0.96985
vt 0.50000 1.00000
vt 0.50000 1.00000
vt 0.67101 0.96985
vt 0.67101 0.96985
vt 0.82139 0.88302
vt 0.82139 0.88302
vt 0.93301 0.75000
vt 0.93301 0.75000
vt 0.99240 0.58682
vt 0.99240 0.58682
vt 0.99240 0.41318
vt 0.99240 0.41318
vt 0.93301 0.25000
vt 0.93301 0.25000
vt 0.82139 0.11698
vt 0.82139 0.11698
vt 0.67101 0.03015
vt 0.67101 0.03015
vt 0.49959 0.00424
vt 0.49918 -0.00147
vt 0.32925 0.02849
vt 0.33082 0.03400
vt 0.33006 0.03428
vt 0.32772 0.02905
vt 0.17829 0.11533
vt 0.18165 0.11997
vt 0.18102 0.12049
vt 0.17703 0.11638
vt 0.06612 0.24856
vt 0.07087 0.25177
vt 0.07046 0.25248
vt 0.06530 0.24997
vt 0.00629 0.41212
vt 0.01185 0.41351
vt 0.01170 0.41431
vt 0.00601 0.41372
vt 0.00601 0.58628
vt 0.01170 0.58569
vt 0.01185 0.58649
vt 0.00629 0.58788
vt 0.06530 0.75003
vt 0.07046 0.74752
vt 0.07087 0.74823
vt 0.06612 0.75144
vt 0.17703 0.88362
vt 0.18102 0.87951
vt 0.18165 0.88003
vt 0.17829 0.88467
vt 0.32772 0.97095
vt 0.33006 0.96572
vt 0.33082 0.96600
vt 0.32925 0.97151
vt 0.49918 1.00147
vt 0.49959 0.99576
vt 0.50041 0.99576
vt 0.50082 1.00147
vt 0.67075 0.97151
vt 0.66918 0.96600
vt 0.66994 0.96572
vt 0.67228 0.97095
vt 0.82171 0.88467
vt 0.81835 0.88003
vt 0.81898 0.87951
vt 0.82297 0.88362
vt 0.93388 0.75144
vt 0.92913 0.74823
vt 0.92954 0.74752
vt 0.93470 0.75003
vt 0.99371 0.58788
vt 0.98815 0.58649
vt 0.98830 0.58569
vt 0.99399 0.58628
vt 0.99399 0.41373
vt 0.98830 0.41432
vt 0.98815 0.41351
vt 0.99371 0.41212
vt 0.93470 0.24997
vt 0.92954 0.25248
vt 0.92913 0.25177
vt 0.93388 0.24856
vt 0.82297 0.11638
vt 0.81898 0.12049
vt 0.81835 0.11997
vt 0.82171 0.11533
vt 0.67228 0.02905
vt 0.66994 0.03428
vt 0.66918 0.03400
vt 0.67075 0.02849
vt 0.50082 -0.00147
vt 0.50041 0.00424
vt 0.49959 0.00424
vt 0.33082 0.03400
vt 0.33006 0.03428
vt 0.18165 0.11997
vt 0.18102 0.12049
vt 0.07087 0.25177
vt 0.07046 0.25248
vt 0.01185 0.41351
vt 0.01170 0.41431
vt 0.01170 0.58569
vt 0.01185 0.58649
vt 0.07046 0.74752
vt 0.07087 0.74823
vt 0.18102 0.87951
vt 0.18165 0.88003
vt 0.33006 0.96572
vt 0.33082 0.96600
vt 0.49959 0.99576
vt 0.50041 0.99576
vt 0.66918 0.96600
vt 0.66994 0.96572
vt 0.81835 0.88003
vt 0.81898 0.87951
vt 0.92913 0.74823
vt 0.92954 0.74752
vt 0.98815 0.58649
vt 0.98830 0.58569
vt 0.98830 0.41432
vt 0.98815 0.41351
vt 0.92954 0.25248
vt 0.92913 0.25177
vt 0.81898 0.12049
vt 0.81835 0.11997
vt 0.66994 0.03428
vt 0.66918 0.03400
vt 0.50041 0.00424
vt 0.99240 0.41318
vt 0.99240 0.58682
vt 0.99240 0.58682
vt 0.93301 0.75000
vt 0.93301 0.75000
vt 0.82139 0.88302
vt 0.82139 0.88302
vt 0.99240 0.58682
vt 0.99240 0.58682
vt 0.93301 0.75000
vt 0.93301 0.75000
vt 0.82139 0.88302
vt 0.82139 0.88302
vt 0.93301 0.75000
vt 0.93301 0.75000
vt 0.99240 0.58682
vt 0.99240 0.58682
vt 0.99240 0.41318
vt 0.99240 0.58682
vt 0.99240 0.58682
vt 0.93301 0.75000
vt 0.93301 0.75000
vt 0.82139 0.88302
vt 0.82139 0.88302
vt 0.99240 0.41318
vt 0.99240 0.58682
vt 0.99240 0.58682
vt 0.93301 0.75000
vt 0.93301 0.75000
vt 0.82139 0.88302
vt 0.82139 0.88302
vt 0.82139 0.88302
vt 0.82139 0.88302
vt 0.93301 0.75000
vt 0.93301 0.75000
vt 0.99240 0.58682
vt 0.99240 0.58682
vt 0.99240 0.41318
vt 0.72119 1.00000
vt 0.77675 1.00000
vt 0.77675 0.75000
vt 0.72119 0.75000
vt 0.83230 1.00000
vt 0.83230 0.75000
vt 0.88786 1.00000
vt 0.88786 0.75000
vt 0.94342 1.00000
vt 0.94342 0.75000
vt 0.99897 1.00000
vt 0.99897 0.75000
vt -0.00103 1.00000
vt 0.05453 1.00000
vt 0.05453 0.75000
vt -0.00103 0.75000
vt 0.11008 1.00000
vt 0.11008 0.75000
vt 0.16564 1.00000
vt 0.16564 0.75000
vt 0.22119 1.00000
vt 0.22119 0.75000
vt 0.27675 1.00000
vt 0.27675 0.75000
vt 0.33230 1.00000
vt 0.33230 0.75000
vt 0.38786 1.00000
vt 0.38786 0.75000
vt 0.44342 1.00000
vt 0.44342 0.75000
vt 0.49897 1.00000
vt 0.49897 0.75000
vt 0.55453 1.00000
vt 0.55453 0.75000
vt 0.61008 1.00000
vt 0.61008 0.75000
vt 0.66564 1.00000
vt 0.66564 0.75000
vt 0.77675 0.50000
vt 0.72119 0.50000
vt 0.83230 0.50000
vt 0.88786 0.50000
vt 0.94342 0.50000
vt 0.99897 0.50000
vt 0.05453 0.50000
vt -0.00103 0.50000
vt 0.11008 0.50000
vt 0.16564 0.50000
vt 0.22119 0.50000
vt 0.27675 0.50000
vt 0.33230 0.50000
vt 0.38786 0.50000
vt 0.44342 0.50000
vt 0.49897 0.50000
vt 0.55453 0.50000
vt 0.61008 0.50000
vt 0.66564 0.50000
vt 0.77675 0.25000
vt 0.72119 0.25000
vt 0.83230 0.25000
vt 0.88786 0.25000
vt 0.94342 0.25000
vt 0.99897 0.25000
vt 0.05453 0.25000
vt -0.00103 0.25000
vt 0.11008 0.25000
vt 0.16564 0.25000
vt 0.22119 0.25000
vt 0.27675 0.25000
vt 0.33230 0.25000
vt 0.38786 0.25000
vt 0.44342 0.25000
vt 0.49897 0.25000
vt 0.55453 0.25000
vt 0.61008 0.25000
vt 0.66564 0.25000
vt 0.77675 0.01450
vt 0.72119 0.01450
vt 0.83230 0.01450
vt 0.88786 0.01450
vt 0.94342 0.01450
vt 0.99897 0.01450
vt 0.05453 0.01450
vt -0.00103 0.01450
vt 0.11008 0.01450
vt 0.16564 0.01450
vt 0.22119 0.01450
vt 0.27675 0.01450
vt 0.33230 0.01450
vt 0.38786 0.01450
vt 0.44342 0.01450
vt 0.49897 0.01450
vt 0.55453 0.01450
vt 0.61008 0.01450
vt 0.66564 0.01450
vt 0.33230 1.00000
vt 0.33230 0.75000
vt 0.38786 1.00000
vt 0.38786 0.75000
vt 0.44342 1.00000
vt 0.44342 0.75000
vt 0.33230 0.50000
vt 0.38786 0.50000
vn -0.0078 -0.9784 0.2064
vn -0.0078 -0.9784 0.2064
vn -0.0078 -0.9784 0.2064
vn -0.0078 -0.9784 0.2064
vn -0.0078 -0.9784 0.2064
vn -0.0078 -0.9784 0.2064
vn -0.0078 -0.9784 0.2064
vn -0.0078 -0.9784 0.2064
vn -0.0078 -0.9784 0.2064
vn -0.0078 -0.9784 0.2064
vn -0.0078 -0.9784 0.2064
vn -0.0078 -0.9784 0.2064
vn -0.0078 -0.9784 0.2064
vn -0.0078 -0.9784 0.2064
vn -0.0078 -0.9784 0.2064
vn -0.0078 -0.9784 0.2064
vn -0.0078 -0.9784 0.2064
vn -0.0078 -0.9784 0.2064
vn 0.2037 0.8836 -0.4216
vn 0.1132 0.8733 -0.4739
vn 0.0099 0.8701 -0.4927
vn -0.0937 0.8745 -0.4759
vn -0.1851 0.8859 -0.4253
vn -0.2533 0.9030 -0.3472
vn -0.2901 0.9235 -0.2509
vn -0.2909 0.9452 -0.1482
vn -0.2557 0.9654 -0.0512
vn -0.1888 0.9817 0.0282
vn -0.0983 0.9919 0.0804
vn 0.0050 0.9950 0.0992
vn 0.1086 0.9907 0.0824
vn 0.2000 0.9793 0.0319
vn 0.2682 0.9623 -0.0463
vn 0.3050 0.9416 -0.1425
vn 0.3057 0.9200 -0.2453
vn 0.2706 0.8998 -0.3422
vn 0.6489 -0.1620 -0.7434
vn 0.8700 -0.1084 -0.4810
vn 0.8700 -0.1084 -0.4810
vn 0.6489 -0.1620 -0.7434
vn 0.9861 -0.0417 -0.1606
vn 0.9861 -0.0417 -0.1606
vn 0.9833 0.0300 0.1792
vn 0.9833 0.0300 0.1792
vn 0.8620 0.0980 0.4974
vn 0.8620 0.0980 0.4974
vn 0.6366 0.1543 0.7556
vn 0.6366 0.1543 0.7556
vn 0.3345 0.1920 0.9227
vn 0.3345 0.1920 0.9227
vn -0.0080 0.2064 0.9784
vn -0.0080 0.2064 0.9784
vn -0.3495 0.1961 0.9162
vn -0.3495 0.1961 0.9162
vn -0.6489 0.1620 0.7434
vn -0.6489 0.1620 0.7434
vn -0.8700 0.1084 0.4810
vn -0.8700 0.1084 0.4810
vn -0.9861 0.0417 0.1606
vn -0.9861 0.0417 0.1606
vn -0.9833 -0.0300 -0.1792
vn -0.9833 -0.0300 -0.1792
vn -0.8620 -0.0980 -0.4974
vn -0.8620 -0.0980 -0.4974
vn -0.6366 -0.1543 -0.7556
vn -0.6366 -0.1543 -0.7556
vn -0.3345 -0.1920 -0.9227
vn -0.3345 -0.1920 -0.9227
vn 0.0080 -0.2064 -0.9784
vn 0.0080 -0.2064 -0.9784
vn 0.3496 -0.1960 -0.9162
vn 0.3496 -0.1960 -0.9162
vn 0.0078 0.9784 -0.2064
vn 0.0078 0.9784 -0.2064
vn 0.0078 0.9784 -0.2064
vn 0.0078 0.9784 -0.2064
vn 0.0078 0.9784 -0.2064
vn 0.0078 0.9784 -0.2064
vn 0.0078 0.9784 -0.2064
vn 0.0078 0.9784 -0.2064
vn 0.0078 0.9784 -0.2064
vn 0.0078 0.9784 -0.2064
vn 0.0078 0.9784 -0.2064
vn 0.0078 0.9784 -0.2064
vn 0.0078 0.9784 -0.2064
vn 0.0078 0.9784 -0.2064
vn 0.0078 0.9784 -0.2064
vn 0.0078 0.9784 -0.2064
vn 0.0078 0.9784 -0.2064
vn 0.0078 0.9784 -0.2064
vn 0.0078 0.9784 -0.2064
vn 0.0078 0.9784 -0.2064
vn 0.0078 0.9784 -0.2064
vn 0.0078 0.9784 -0.2064
vn 0.0078 0.9784 -0.2064
vn 0.0078 0.9784 -0.2064
vn 0.0078 0.9784 -0.2064
vn 0.0078 0.9784 -0.2064
vn 0.0078 0.9784 -0.2064
vn 0.0078 0.9784 -0.2064
vn 0.0078 0.9784 -0.2064
vn 0.0078 0.9784 -0.2064
vn 0.0078 0.9784 -0.2064
vn 0.0078 0.9784 -0.2064
vn 0.0078 0.9784 -0.2064
vn 0.0078 0.9784 -0.2064
vn 0.0078 0.9784 -0.2064
vn 0.0078 0.9784 -0.2064
vn -0.0078 -0.9784 0.2064
vn -0.0078 -0.9784 0.2064
vn -0.0078 -0.9784 0.2064
vn -0.0078 -0.9784 0.2064
vn -0.0078 -0.9784 0.2064
vn -0.0078 -0.9784 0.2064
vn -0.0078 -0.9784 0.2064
vn -0.0078 -0.9784 0.2064
vn -0.0078 -0.9784 0.2064
vn -0.0078 -0.9784 0.2064
vn -0.0078 -0.9784 0.2064
vn -0.0078 -0.9784 0.2064
vn -0.0078 -0.9784 0.2064
vn -0.0078 -0.9784 0.2064
vn -0.0078 -0.9784 0.2064
vn -0.0078 -0.9784 0.2064
vn -0.0078 -0.9784 0.2064
vn -0.0078 -0.9784 0.2064
vn -0.0078 -0.9784 0.2064
vn -0.0078 -0.9784 0.2064
vn -0.0078 -0.9784 0.2064
vn -0.0078 -0.9784 0.2064
vn -0.0078 -0.9784 0.2064
vn -0.0078 -0.9784 0.2064
vn -0.0078 -0.9784 0.2064
vn -0.0078 -0.9784 0.2064
vn -0.0078 -0.9784 0.2064
vn -0.0078 -0.9784 0.2064
vn -0.0078 -0.9784 0.2064
vn -0.0078 -0.9784 0.2064
vn -0.0078 -0.9784 0.2064
vn -0.0078 -0.9784 0.2064
vn -0.0078 -0.9784 0.2064
vn -0.0078 -0.9784 0.2064
vn -0.0078 -0.9784 0.2064
vn -0.0078 -0.9784 0.2064
vn -0.6489 0.1620 0.7434
vn -0.8700 0.1084 0.4810
vn -0.8696 0.0720 0.4884
vn -0.6507 0.1260 0.7488
vn -0.9861 0.0417 0.1606
vn -0.9858 0.0053 0.1682
vn -0.9833 -0.0300 -0.1792
vn -0.9830 -0.0663 -0.1714
vn -0.8620 -0.0980 -0.4974
vn -0.8616 -0.1344 -0.4893
vn -0.6366 -0.1543 -0.7556
vn -0.6365 -0.1906 -0.7474
vn -0.3345 -0.1920 -0.9227
vn -0.3345 -0.2283 -0.9144
vn 0.0080 -0.2064 -0.9784
vn 0.0077 -0.2427 -0.9701
vn 0.3496 -0.1960 -0.9162
vn 0.3490 -0.2323 -0.9079
vn 0.6489 -0.1620 -0.7434
vn 0.6481 -0.1983 -0.7353
vn 0.8700 -0.1084 -0.4810
vn 0.8691 -0.1448 -0.4731
vn 0.9861 -0.0417 -0.1606
vn 0.9852 -0.0781 -0.1528
vn 0.9833 0.0300 0.1792
vn 0.9824 -0.0065 0.1868
vn 0.8620 0.0980 0.4974
vn 0.8610 0.0616 0.5047
vn 0.6366 0.1543 0.7556
vn 0.6359 0.1178 0.7628
vn 0.3380 0.1933 0.9211
vn 0.3379 0.1548 0.9284
vn -0.0109 0.2215 0.9751
vn -0.0040 0.1761 0.9844
vn -0.3500 0.2093 0.9130
vn -0.3552 0.1665 0.9198
vn -0.8681 0.0347 0.4951
vn -0.6482 0.0874 0.7564
vn -0.9839 -0.0318 0.1756
vn -0.9812 -0.1033 -0.1632
vn -0.8601 -0.1712 -0.4805
vn -0.6354 -0.2274 -0.7379
vn -0.3341 -0.2648 -0.9046
vn 0.0074 -0.2793 -0.9602
vn 0.3480 -0.2689 -0.8981
vn 0.6465 -0.2350 -0.7258
vn 0.8670 -0.1815 -0.4642
vn 0.9828 -0.1151 -0.1446
vn 0.9800 -0.0436 0.1942
vn 0.8589 0.0244 0.5115
vn 0.6342 0.0804 0.7689
vn 0.3329 0.1180 0.9355
vn -0.0081 0.1318 0.9912
vn -0.3489 0.1209 0.9293
vn 0.5627 0.3583 -0.7450
vn 0.5627 0.3583 -0.7450
vn 0.7530 0.4044 -0.5191
vn 0.7530 0.4044 -0.5191
vn 0.8530 0.4618 -0.2433
vn 0.8530 0.4618 -0.2433
vn 0.8506 0.5235 0.0493
vn 0.8506 0.5235 0.0493
vn 0.7461 0.5822 0.3233
vn 0.7461 0.5822 0.3233
vn 0.5521 0.6306 0.5455
vn 0.5521 0.6306 0.5455
vn 0.2919 0.6630 0.6893
vn 0.2919 0.6630 0.6893
vn -0.0029 0.6755 0.7374
vn -0.0029 0.6755 0.7374
vn -0.2970 0.6665 0.6838
vn -0.2970 0.6665 0.6838
vn -0.5547 0.6372 0.5351
vn -0.5547 0.6372 0.5351
vn -0.7450 0.5911 0.3091
vn -0.7450 0.5911 0.3091
vn -0.8451 0.5337 0.0332
vn -0.8451 0.5337 0.0332
vn -0.8426 0.4720 -0.2593
vn -0.8426 0.4720 -0.2593
vn -0.7381 0.4133 -0.5332
vn -0.7381 0.4133 -0.5332
vn -0.5441 0.3649 -0.7555
vn -0.5441 0.3649 -0.7555
vn -0.2839 0.3325 -0.8993
vn -0.2839 0.3325 -0.8993
vn 0.0108 0.3200 -0.9473
vn 0.0108 0.3200 -0.9473
vn 0.3049 0.3289 -0.8938
vn 0.3049 0.3289 -0.8938
vn 0.7450 -0.5911 -0.3091
vn 0.7450 -0.5911 -0.3091
vn 0.5547 -0.6372 -0.5351
vn 0.5547 -0.6372 -0.5351
vn 0.2970 -0.6665 -0.6838
vn 0.2970 -0.6665 -0.6838
vn 0.0029 -0.6755 -0.7374
vn 0.0029 -0.6755 -0.7374
vn -0.2919 -0.6630 -0.6893
vn -0.2919 -0.6630 -0.6893
vn -0.5521 -0.6306 -0.5455
vn -0.5521 -0.6306 -0.5455
vn -0.7461 -0.5822 -0.3233
vn -0.7461 -0.5822 -0.3233
vn -0.8506 -0.5235 -0.0493
vn -0.8506 -0.5235 -0.0493
vn -0.8530 -0.4618 0.2433
vn -0.8530 -0.4618 0.2433
vn -0.7530 -0.4044 0.5191
vn -0.7530 -0.4044 0.5191
vn -0.5627 -0.3583 0.7450
vn -0.5627 -0.3583 0.7450
vn -0.3049 -0.3289 0.8938
vn -0.3049 -0.3289 0.8938
vn -0.0108 -0.3200 0.9473
vn -0.0108 -0.3200 0.9473
vn 0.2839 -0.3325 0.8993
vn 0.2839 -0.3325 0.8993
vn 0.5441 -0.3649 0.7555
vn 0.5441 -0.3649 0.7555
vn 0.7381 -0.4133 0.5332
vn 0.7381 -0.4133 0.5332
vn 0.8426 -0.4720 0.2593
vn 0.8426 -0.4720 0.2593
vn 0.8451 -0.5337 -0.0332
vn 0.8451 -0.5337 -0.0332
vn 0.8700 -0.0985 -0.4831
vn 0.8657 -0.1966 -0.4604
vn 0.6455 -0.2500 -0.7217
vn 0.6490 -0.1521 -0.7455
vn 0.6490 -0.1521 -0.7455
vn 0.6455 -0.2500 -0.7217
vn 0.3474 -0.2839 -0.8937
vn 0.3496 -0.1862 -0.9182
vn 0.3496 -0.1862 -0.9182
vn 0.3474 -0.2839 -0.8937
vn 0.0072 -0.2942 -0.9557
vn 0.0081 -0.1965 -0.9805
vn 0.0081 -0.1965 -0.9805
vn 0.0072 -0.2942 -0.9557
vn -0.3338 -0.2798 -0.9002
vn -0.3343 -0.1821 -0.9247
vn -0.3343 -0.1821 -0.9247
vn -0.3338 -0.2798 -0.9002
vn -0.6347 -0.2423 -0.7338
vn -0.6365 -0.1445 -0.7577
vn -0.6365 -0.1445 -0.7577
vn -0.6347 -0.2423 -0.7338
vn -0.8591 -0.1863 -0.4767
vn -0.8618 -0.0882 -0.4995
vn -0.8618 -0.0882 -0.4995
vn -0.8591 -0.1863 -0.4767
vn -0.9800 -0.1185 -0.1598
vn -0.9832 -0.0201 -0.1812
vn -0.9832 -0.0201 -0.1812
vn -0.9800 -0.1185 -0.1598
vn -0.9828 -0.0470 0.1786
vn -0.9860 0.0516 0.1586
vn -0.9860 0.0516 0.1586
vn -0.9828 -0.0470 0.1786
vn -0.8671 0.0194 0.4977
vn -0.8699 0.1182 0.4789
vn -0.8699 0.1182 0.4789
vn -0.8671 0.0194 0.4977
vn -0.6469 0.0727 0.7591
vn -0.6487 0.1719 0.7413
vn -0.6487 0.1719 0.7413
vn -0.6469 0.0727 0.7591
vn -0.3487 0.1066 0.9311
vn -0.3495 0.2059 0.9140
vn -0.3495 0.2059 0.9140
vn -0.3487 0.1066 0.9311
vn -0.0086 0.1170 0.9931
vn -0.0080 0.2163 0.9764
vn -0.0080 0.2163 0.9764
vn -0.0086 0.1170 0.9931
vn 0.3324 0.1025 0.9376
vn 0.3345 0.2018 0.9205
vn 0.3345 0.2018 0.9205
vn 0.3324 0.1025 0.9376
vn 0.6333 0.0651 0.7712
vn 0.6367 0.1642 0.7534
vn 0.6367 0.1642 0.7534
vn 0.6333 0.0651 0.7712
vn 0.8577 0.0090 0.5140
vn 0.8620 0.1079 0.4953
vn 0.8620 0.1079 0.4953
vn 0.8577 0.0090 0.5140
vn 0.9786 -0.0588 0.1972
vn 0.9834 0.0398 0.1772
vn 0.9834 0.0398 0.1772
vn 0.9786 -0.0588 0.1972
vn 0.9814 -0.1302 -0.1413
vn 0.9862 -0.0319 -0.1626
vn 0.9862 -0.0319 -0.1626
vn 0.9814 -0.1302 -0.1413
vn 0.8657 -0.1966 -0.4604
vn 0.8700 -0.0985 -0.4831
vn 0.4478 0.7884 -0.4218
vn 0.3357 0.7612 -0.5548
vn 0.3357 0.7612 -0.5548
vn 0.1840 0.7440 -0.6423
vn 0.1840 0.7440 -0.6423
vn 0.0108 0.7387 -0.6740
vn 0.0108 0.7387 -0.6740
vn -0.1628 0.7461 -0.6456
vn -0.1628 0.7461 -0.6456
vn -0.3160 0.7651 -0.5610
vn -0.3160 0.7651 -0.5610
vn -0.4302 0.7937 -0.4301
vn -0.4302 0.7937 -0.4301
vn -0.4918 0.8282 -0.2688
vn -0.4918 0.8282 -0.2688
vn -0.4932 0.8646 -0.0965
vn -0.4932 0.8646 -0.0965
vn -0.4344 0.8984 0.0660
vn -0.4344 0.8984 0.0660
vn -0.3222 0.9255 0.1990
vn -0.3222 0.9255 0.1990
vn -0.1705 0.9428 0.2865
vn -0.1705 0.9428 0.2865
vn 0.0027 0.9481 0.3181
vn 0.0027 0.9481 0.3181
vn 0.1763 0.9407 0.2898
vn 0.1763 0.9407 0.2898
vn 0.3295 0.9216 0.2052
vn 0.3295 0.9216 0.2052
vn 0.4437 0.8931 0.0743
vn 0.4437 0.8931 0.0743
vn 0.5053 0.8585 -0.0871
vn 0.5053 0.8585 -0.0871
vn 0.5067 0.8222 -0.2593
vn 0.5067 0.8222 -0.2593
vn 0.4478 0.7884 -0.4218
vn 0.5776 0.2053 0.7901
vn 0.2926 0.3928 0.8718
vn 0.2186 0.4307 0.8756
vn -0.0350 0.5341 0.8447
vn -0.0913 0.5517 0.8290
vn -0.3619 0.6075 0.7071
vn -0.3902 0.6102 0.6895
vn 0.3802 0.7887 -0.4829
vn 0.3802 0.7887 -0.4829
vn 0.3802 0.7887 -0.4829
vn 0.3802 0.7887 -0.4829
vn 0.3802 0.7887 -0.4829
vn -0.3802 -0.7887 0.4829
vn -0.3802 -0.7887 0.4829
vn -0.3802 -0.7887 0.4829
vn -0.3802 -0.7887 0.4829
vn -0.3802 -0.7887 0.4829
vn -0.3802 -0.7887 0.4829
vn -0.2186 -0.4307 -0.8756
vn -0.2722 -0.4384 -0.8565
vn 0.0913 -0.5517 -0.8290
vn 0.0470 -0.5696 -0.8206
vn 0.3611 -0.6361 -0.6820
vn 0.3334 -0.6651 -0.6682
vn 0.6407 0.6163 0.4580
vn 0.4342 0.7453 0.5060
vn 0.3956 0.7651 0.5080
vn 0.1521 0.8646 0.4788
vn 0.1266 0.8727 0.4717
vn -0.1246 0.9249 0.3592
vn -0.1362 0.9261 0.3519
vn -0.5346 0.1247 0.8359
vn -0.5032 0.1217 0.8556
vn -0.2791 0.0761 0.9572
vn -0.2230 0.0587 0.9730
vn -0.0088 -0.0283 0.9996
vn 0.0541 -0.0604 0.9967
vn 0.2450 -0.1792 0.9529
vn 0.8691 -0.0546 -0.4916
vn 0.6484 -0.1081 -0.7536
vn 0.6484 -0.1113 -0.7531
vn 0.8692 -0.0577 -0.4911
vn 0.3494 -0.1421 -0.9261
vn 0.3494 -0.1453 -0.9256
vn 0.0085 -0.1525 -0.9883
vn 0.0084 -0.1557 -0.9878
vn -0.3335 -0.1380 -0.9325
vn -0.3336 -0.1412 -0.9321
vn -0.6353 -0.1005 -0.7658
vn -0.6353 -0.1036 -0.7652
vn -0.6353 -0.1005 -0.7658
vn -0.8603 -0.0443 -0.5080
vn -0.8604 -0.0474 -0.5073
vn -0.6353 -0.1036 -0.7652
vn -0.9814 0.0237 -0.1903
vn -0.9816 0.0206 -0.1897
vn -0.9842 0.0953 0.1490
vn -0.9844 0.0922 0.1497
vn -0.8682 0.1619 0.4690
vn -0.8684 0.1588 0.4697
vn -0.6475 0.2154 0.7310
vn -0.6476 0.2123 0.7317
vn -0.3486 0.2494 0.9035
vn -0.3486 0.2463 0.9043
vn -0.0076 0.2598 0.9656
vn -0.0076 0.2568 0.9665
vn 0.3344 0.2453 0.9099
vn 0.3344 0.2422 0.9108
vn 0.6361 0.2077 0.7432
vn 0.6362 0.2045 0.7439
vn 0.8611 0.1516 0.4853
vn 0.8612 0.1484 0.4861
vn 0.9822 0.0836 0.1676
vn 0.9825 0.0804 0.1684
vn 0.9851 0.0119 -0.1716
vn 0.9853 0.0088 -0.1710
vn 0.6489 -0.1620 -0.7434
vn 0.8700 -0.1084 -0.4810
vn 0.3495 -0.1961 -0.9162
vn 0.0080 -0.2064 -0.9784
vn -0.3345 -0.1920 -0.9227
vn -0.6366 -0.1543 -0.7556
vn -0.8620 -0.0980 -0.4974
vn -0.6366 -0.1543 -0.7556
vn -0.9833 -0.0300 -0.1792
vn -0.9861 0.0417 0.1606
vn -0.8700 0.1084 0.4810
vn -0.6489 0.1620 0.7434
vn -0.3496 0.1960 0.9162
vn -0.0080 0.2064 0.9784
vn 0.3345 0.1920 0.9227
vn 0.6366 0.1543 0.7556
vn 0.8620 0.0980 0.4974
vn 0.9833 0.0300 0.1792
vn 0.9861 -0.0417 -0.1606
vn 0.6430 -0.2818 -0.7122
vn 0.8623 -0.2285 -0.4518
vn 0.3459 -0.3155 -0.8836
vn 0.0070 -0.3258 -0.9454
vn -0.3329 -0.3114 -0.8901
vn -0.6327 -0.2740 -0.7243
vn -0.8563 -0.2183 -0.4681
vn -0.6327 -0.2740 -0.7243
vn -0.9768 -0.1507 -0.1523
vn -0.9795 -0.0796 0.1849
vn -0.8642 -0.0134 0.5028
vn -0.6449 0.0398 0.7632
vn -0.3478 0.0736 0.9347
vn -0.0089 0.0839 0.9964
vn 0.3309 0.0695 0.9411
vn 0.6307 0.0321 0.7754
vn 0.8544 -0.0237 0.5191
vn 0.9749 -0.0912 0.2033
vn 0.9776 -0.1624 -0.1339
vn 0.6455 -0.2500 -0.7217
vn 0.8657 -0.1966 -0.4604
vn 0.3474 -0.2839 -0.8937
vn 0.0072 -0.2942 -0.9557
vn -0.3338 -0.2798 -0.9002
vn -0.6347 -0.2423 -0.7338
vn -0.8591 -0.1863 -0.4767
vn -0.6347 -0.2423 -0.7338
vn -0.9800 -0.1185 -0.1598
vn -0.9828 -0.0470 0.1786
vn -0.8671 0.0194 0.4977
vn -0.6469 0.0727 0.7591
vn -0.3487 0.1066 0.9311
vn -0.0086 0.1170 0.9931
vn 0.3324 0.1025 0.9376
vn 0.6333 0.0651 0.7712
vn 0.8577 0.0090 0.5140
vn 0.9786 -0.0588 0.1972
vn 0.9814 -0.1302 -0.1413
vn -0.3678 0.6525 0.6625
vn -0.3553 0.6489 0.6729
vn -0.0689 0.5936 0.8018
vn -0.0420 0.5828 0.8116
vn 0.2407 0.4725 0.8478
vn 0.2769 0.4515 0.8482
vn -0.3762 0.6097 0.6976
vn -0.0634 0.5441 0.8366
usemtl 02_-_Default_4
f 1/1/1 2/2/2 3/3/3
f 3/3/3 4/4/4 5/5/5
f 5/5/5 6/6/6 7/7/7
f 3/3/3 5/5/5 7/7/7
f 7/7/7 8/8/8 9/9/9
f 9/9/9 10/10/10 11/11/11
f 7/7/7 9/9/9 11/11/11
f 11/11/11 12/12/12 13/13/13
f 13/13/13 14/14/14 15/15/15
f 11/11/11 13/13/13 15/15/15
f 7/7/7 11/11/11 15/15/15
f 3/3/3 7/7/7 15/15/15
f 15/15/15 16/16/16 17/17/17
f 3/3/3 15/15/15 17/17/17
f 1/1/1 3/3/3 17/17/17
f 18/18/18 1/1/1 17/17/17
f 19/19/19 20/20/20 21/21/21
f 21/21/21 22/22/22 23/23/23
f 23/23/23 24/24/24 25/25/25
f 21/21/21 23/23/23 25/25/25
f 25/25/25 26/26/26 27/27/27
f 27/27/27 28/28/28 29/29/29
f 25/25/25 27/27/27 29/29/29
f 29/29/29 30/30/30 31/31/31
f 31/31/31 32/32/32 33/33/33
f 29/29/29 31/31/31 33/33/33
f 25/25/25 29/29/29 33/33/33
f 21/21/21 25/25/25 33/33/33
f 33/33/33 34/34/34 35/35/35
f 21/21/21 33/33/33 35/35/35
f 19/19/19 21/21/21 35/35/35
f 36/36/36 19/19/19 35/35/35
f 37/37/37 38/38/38 39/39/39
f 39/39/39 40/40/40 37/37/37
f 38/38/38 41/41/41 42/42/42
f 42/42/42 39/39/39 38/38/38
f 41/41/41 43/43/43 44/44/44
f 44/44/44 42/42/42 41/41/41
f 43/43/43 45/45/45 46/46/46
f 46/46/46 44/44/44 43/43/43
f 45/45/45 47/47/47 48/48/48
f 48/48/48 46/46/46 45/45/45
f 47/47/47 49/49/49 50/50/50
f 50/50/50 48/48/48 47/47/47
f 49/49/49 51/51/51 52/52/52
f 52/52/52 50/50/50 49/49/49
f 51/51/51 53/53/53 54/54/54
f 54/54/54 52/52/52 51/51/51
f 53/53/53 55/55/55 56/56/56
f 56/56/56 54/54/54 53/53/53
f 55/55/55 57/57/57 58/58/58
f 58/58/58 56/56/56 55/55/55
f 57/57/57 59/59/59 60/60/60
f 60/60/60 58/58/58 57/57/57
f 59/59/59 61/61/61 62/62/62
f 62/62/62 60/60/60 59/59/59
f 61/61/61 63/63/63 64/64/64
f 64/64/64 62/62/62 61/61/61
f 63/63/63 65/65/65 66/66/66
f 66/66/66 64/64/64 63/63/63
f 65/65/65 67/67/67 68/68/68
f 68/68/68 66/66/66 65/65/65
f 67/67/67 69/69/69 70/70/70
f 70/70/70 68/68/68 67/67/67
f 69/69/69 71/71/71 72/72/72
f 72/72/72 70/70/70 69/69/69
f 71/71/71 37/37/37 40/40/40
f 40/40/40 72/72/72 71/71/71
f 73/73/73 74/74/74 75/75/75
f 75/75/75 76/76/76 73/73/73
f 74/74/74 77/77/77 78/78/78
f 78/78/78 75/75/75 74/74/74
f 77/77/77 79/79/79 80/80/80
f 80/80/80 78/78/78 77/77/77
f 79/79/79 81/81/81 82/82/82
f 82/82/82 80/80/80 79/79/79
f 81/81/81 83/83/83 84/84/84
f 84/84/84 82/82/82 81/81/81
f 83/83/83 85/85/85 86/86/86
f 86/86/86 84/84/84 83/83/83
f 85/85/85 87/87/87 88/88/88
f 88/88/88 86/86/86 85/85/85
f 87/87/87 89/89/89 90/90/90
f 90/90/90 88/88/88 87/87/87
f 89/89/89 91/91/91 92/92/92
f 92/92/92 90/90/90 89/89/89
f 91/91/91 93/93/93 94/94/94
f 94/94/94 92/92/92 91/91/91
f 93/93/93 95/95/95 96/96/96
f 96/96/96 94/94/94 93/93/93
f 95/95/95 97/97/97 98/98/98
f 98/98/98 96/96/96 95/95/95
f 97/97/97 99/99/99 100/100/100
f 100/100/100 98/98/98 97/97/97
f 99/99/99 101/101/101 102/102/102
f 102/102/102 100/100/100 99/99/99
f 101/101/101 103/103/103 104/104/104
f 104/104/104 102/102/102 101/101/101
f 103/103/103 105/105/105 106/106/106
f 106/106/106 104/104/104 103/103/103
f 105/105/105 107/107/107 108/108/108
f 108/108/108 106/106/106 105/105/105
f 107/107/107 73/73/73 76/76/76
f 76/76/76 108/108/108 107/107/107
f 109/109/109 110/110/110 111/111/111
f 111/111/111 112/112/112 109/109/109
f 110/110/110 113/113/113 114/114/114
f 114/114/114 111/111/111 110/110/110
f 113/113/113 115/115/115 116/116/116
f 116/116/116 114/114/114 113/113/113
f 115/115/115 117/117/117 118/118/118
f 118/118/118 116/116/116 115/115/115
f 117/117/117 119/119/119 120/120/120
f 120/120/120 118/118/118 117/117/117
f 119/119/119 121/121/121 122/122/122
f 122/122/122 120/120/120 119/119/119
f 121/121/121 123/123/123 124/124/124
f 124/124/124 122/122/122 121/121/121
f 123/123/123 125/125/125 126/126/126
f 126/126/126 124/124/124 123/123/123
f 125/125/125 127/127/127 128/128/128
f 128/128/128 126/126/126 125/125/125
f 127/127/127 129/129/129 130/130/130
f 130/130/130 128/128/128 127/127/127
f 129/129/129 131/131/131 132/132/132
f 132/132/132 130/130/130 129/129/129
f 131/131/131 133/133/133 134/134/134
f 134/134/134 132/132/132 131/131/131
f 133/133/133 135/135/135 136/136/136
f 136/136/136 134/134/134 133/133/133
f 135/135/135 137/137/137 138/138/138
f 138/138/138 136/136/136 135/135/135
f 137/137/137 139/139/139 140/140/140
f 140/140/140 138/138/138 137/137/137
f 139/139/139 141/141/141 142/142/142
f 142/142/142 140/140/140 139/139/139
f 141/141/141 143/143/143 144/144/144
f 144/144/144 142/142/142 141/141/141
f 143/143/143 109/109/109 112/112/112
f 112/112/112 144/144/144 143/143/143
f 145/145/145 146/146/146 147/147/147
f 147/147/147 148/148/148 145/145/145
f 146/146/146 149/149/149 150/150/150
f 150/150/150 147/147/147 146/146/146
f 149/149/149 151/151/151 152/152/152
f 152/152/152 150/150/150 149/149/149
f 151/151/151 153/153/153 154/154/154
f 154/154/154 152/152/152 151/151/151
f 153/153/153 155/155/155 156/156/156
f 156/156/156 154/154/154 153/153/153
f 155/155/155 157/157/157 158/158/158
f 158/158/158 156/156/156 155/155/155
f 157/157/157 159/159/159 160/160/160
f 160/160/160 158/158/158 157/157/157
f 159/159/159 161/161/161 162/162/162
f 162/162/162 160/160/160 159/159/159
f 161/161/161 163/163/163 164/164/164
f 164/164/164 162/162/162 161/161/161
f 163/163/163 165/165/165 166/166/166
f 166/166/166 164/164/164 163/163/163
f 165/165/165 167/167/167 168/168/168
f 168/168/168 166/166/166 165/165/165
f 167/167/167 169/169/169 170/170/170
f 170/170/170 168/168/168 167/167/167
f 169/169/169 171/171/171 172/172/172
f 172/172/172 170/170/170 169/169/169
f 171/171/171 173/173/173 174/174/174
f 174/174/174 172/172/172 171/171/171
f 173/173/173 175/175/175 176/176/176
f 176/176/176 174/174/174 173/173/173
f 175/175/175 177/177/177 178/178/178
f 178/178/178 176/176/176 175/175/175
f 177/177/177 179/179/179 180/180/180
f 180/180/180 178/178/178 177/177/177
f 179/179/179 145/145/145 148/148/148
f 148/148/148 180/180/180 179/179/179
f 148/148/148 147/147/147 181/181/181
f 181/181/181 182/182/182 148/148/148
f 147/147/147 150/150/150 183/183/183
f 183/183/183 181/181/181 147/147/147
f 150/150/150 152/152/152 184/184/184
f 184/184/184 183/183/183 150/150/150
f 152/152/152 154/154/154 185/185/185
f 185/185/185 184/184/184 152/152/152
f 154/154/154 156/156/156 186/186/186
f 186/186/186 185/185/185 154/154/154
f 156/156/156 158/158/158 187/187/187
f 187/187/187 186/186/186 156/156/156
f 158/158/158 160/160/160 188/188/188
f 188/188/188 187/187/187 158/158/158
f 160/160/160 162/162/162 189/189/189
f 189/189/189 188/188/188 160/160/160
f 162/162/162 164/164/164 190/190/190
f 190/190/190 189/189/189 162/162/162
f 164/164/164 166/166/166 191/191/191
f 191/191/191 190/190/190 164/164/164
f 166/166/166 168/168/168 192/192/192
f 192/192/192 191/191/191 166/166/166
f 168/168/168 170/170/170 193/193/193
f 193/193/193 192/192/192 168/168/168
f 170/170/170 172/172/172 194/194/194
f 194/194/194 193/193/193 170/170/170
f 172/172/172 174/174/174 195/195/195
f 195/195/195 194/194/194 172/172/172
f 174/174/174 176/176/176 196/196/196
f 196/196/196 195/195/195 174/174/174
f 176/176/176 178/178/178 197/197/197
f 197/197/197 196/196/196 176/176/176
f 178/178/178 180/180/180 198/198/198
f 198/198/198 197/197/197 178/178/178
f 180/180/180 148/148/148 182/182/182
f 182/182/182 198/198/198 180/180/180
f 199/199/199 200/200/200 201/201/201
f 201/201/201 202/202/202 199/199/199
f 202/202/202 201/201/201 203/203/203
f 203/203/203 204/204/204 202/202/202
f 204/204/204 203/203/203 205/205/205
f 205/205/205 206/206/206 204/204/204
f 206/206/206 205/205/205 207/207/207
f 207/207/207 208/208/208 206/206/206
f 208/208/208 207/207/207 209/209/209
f 209/209/209 210/210/210 208/208/208
f 210/210/210 209/209/209 211/211/211
f 211/211/211 212/212/212 210/210/210
f 212/212/212 211/211/211 213/213/213
f 213/213/213 214/214/214 212/212/212
f 214/214/214 213/213/213 215/215/215
f 215/215/215 216/216/216 214/214/214
f 216/216/216 215/215/215 217/217/217
f 217/217/217 218/218/218 216/216/216
f 218/218/218 217/217/217 219/219/219
f 219/219/219 220/220/220 218/218/218
f 220/220/220 219/219/219 221/221/221
f 221/221/221 222/222/222 220/220/220
f 222/222/222 221/221/221 223/223/223
f 223/223/223 224/224/224 222/222/222
f 224/224/224 223/223/223 225/225/225
f 225/225/225 226/226/226 224/224/224
f 226/226/226 225/225/225 227/227/227
f 227/227/227 228/228/228 226/226/226
f 228/228/228 227/227/227 229/229/229
f 229/229/229 230/230/230 228/228/228
f 230/230/230 229/229/229 231/231/231
f 231/231/231 232/232/232 230/230/230
f 232/232/232 231/231/231 233/233/233
f 233/233/233 234/234/234 232/232/232
f 234/234/234 233/233/233 200/200/200
f 200/200/200 199/199/199 234/234/234
f 235/235/235 236/236/236 237/237/237
f 238/238/238 237/237/237 239/239/239
f 239/239/239 240/240/240 238/238/238
f 240/240/240 239/239/239 241/241/241
f 241/241/241 242/242/242 240/240/240
f 242/242/242 241/241/241 243/243/243
f 243/243/243 244/244/244 242/242/242
f 244/244/244 243/243/243 245/245/245
f 245/245/245 246/246/246 244/244/244
f 246/246/246 245/245/245 247/247/247
f 247/247/247 248/248/248 246/246/246
f 248/248/248 247/247/247 249/249/249
f 249/249/249 250/250/250 248/248/248
f 250/250/250 249/249/249 251/251/251
f 251/251/251 252/252/252 250/250/250
f 252/252/252 251/251/251 253/253/253
f 253/253/253 254/254/254 252/252/252
f 254/254/254 253/253/253 255/255/255
f 255/255/255 256/256/256 254/254/254
f 256/256/256 255/255/255 257/257/257
f 257/257/257 258/258/258 256/256/256
f 258/258/258 257/257/257 259/259/259
f 259/259/259 260/260/260 258/258/258
f 260/260/260 259/259/259 261/261/261
f 261/261/261 262/262/262 260/260/260
f 262/262/262 261/261/261 263/263/263
f 263/263/263 264/264/264 262/262/262
f 264/264/264 263/263/263 265/265/265
f 265/265/265 266/266/266 264/264/264
f 266/266/266 265/265/265 267/267/267
f 267/267/267 268/268/268 266/266/266
f 268/268/268 267/267/267 269/269/269
f 269/269/269 270/270/270 268/268/268
f 270/270/270 269/269/269 236/236/236
f 236/236/236 235/235/235 270/270/270
f 271/271/271 272/272/272 273/273/273
f 273/273/273 274/274/274 271/271/271
f 275/275/275 276/276/276 277/277/277
f 277/277/277 278/278/278 275/275/275
f 279/279/279 280/280/280 281/281/281
f 281/281/281 282/282/282 279/279/279
f 283/283/283 284/284/284 285/285/285
f 285/285/285 286/286/286 283/283/283
f 287/287/287 288/288/288 289/289/289
f 289/289/289 290/290/290 287/287/287
f 291/291/291 292/292/292 293/293/293
f 293/293/293 294/294/294 291/291/291
f 295/295/295 296/296/296 297/297/297
f 297/297/297 298/298/298 295/295/295
f 299/299/299 300/300/300 301/301/301
f 301/301/301 302/302/302 299/299/299
f 303/303/303 304/304/304 305/305/305
f 305/305/305 306/306/306 303/303/303
f 307/307/307 308/308/308 309/309/309
f 309/309/309 310/310/310 307/307/307
f 311/311/311 312/312/312 313/313/313
f 313/313/313 314/314/314 311/311/311
f 315/315/315 316/316/316 317/317/317
f 317/317/317 318/318/318 315/315/315
f 319/319/319 320/320/320 321/321/321
f 321/321/321 322/322/322 319/319/319
f 323/323/323 324/324/324 325/325/325
f 325/325/325 326/326/326 323/323/323
f 327/327/327 328/328/328 329/329/329
f 329/329/329 330/330/330 327/327/327
f 331/331/331 332/332/332 333/333/333
f 333/333/333 334/334/334 331/331/331
f 335/335/335 336/336/336 337/337/337
f 337/337/337 338/338/338 335/335/335
f 339/339/339 340/340/340 341/341/341
f 341/341/341 342/342/342 339/339/339
f 36/36/36 343/343/343 344/344/344
f 344/344/344 19/19/19 36/36/36
f 19/19/19 345/345/345 346/346/346
f 346/346/346 20/20/20 19/19/19
f 20/20/20 347/347/347 348/348/348
f 348/348/348 21/21/21 20/20/20
f 21/21/21 349/349/349 350/350/350
f 350/350/350 22/22/22 21/21/21
f 22/22/22 351/351/351 352/352/352
f 352/352/352 23/23/23 22/22/22
f 23/23/23 353/353/353 354/354/354
f 354/354/354 24/24/24 23/23/23
f 24/24/24 355/355/355 356/356/356
f 356/356/356 25/25/25 24/24/24
f 25/25/25 357/357/357 358/358/358
f 358/358/358 26/26/26 25/25/25
f 26/26/26 359/359/359 360/360/360
f 360/360/360 27/27/27 26/26/26
f 27/27/27 361/361/361 362/362/362
f 362/362/362 28/28/28 27/27/27
f 28/28/28 363/363/363 364/364/364
f 364/364/364 29/29/29 28/28/28
f 29/29/29 365/365/365 366/366/366
f 366/366/366 30/30/30 29/29/29
f 30/30/30 367/367/367 368/368/368
f 368/368/368 31/31/31 30/30/30
f 31/31/31 369/369/369 370/370/370
f 370/370/370 32/32/32 31/31/31
f 32/32/32 371/371/371 372/372/372
f 372/372/372 33/33/33 32/32/32
f 33/33/33 373/373/373 374/374/374
f 374/374/374 34/34/34 33/33/33
f 34/34/34 375/375/375 376/376/376
f 376/376/376 35/35/35 34/34/34
f 35/35/35 377/377/377 378/378/378
f 378/378/378 36/36/36 35/35/35
f 379/379/379 380/380/380 381/381/381
f 380/380/380 382/382/382 383/383/383
f 383/383/383 381/381/381 380/380/380
f 382/382/382 384/384/384 385/385/385
f 385/385/385 383/383/383 382/382/382
f 386/386/386 388/388/388 389/389/389
f 389/389/389 387/387/387 386/386/386
f 390/390/390 389/389/389 388/388/388
f 391/391/391 392/392/392 393/393/393
f 392/392/392 394/394/394 395/395/395
f 395/395/395 393/393/393 392/392/392
f 396/396/396 395/395/395 394/394/394
f 397/397/397 399/399/399 400/400/400
f 400/400/400 398/398/398 397/397/397
f 400/400/400 401/401/401 402/402/402
f 404/404/404 405/405/405 403/403/403
f 405/405/405 404/404/404 406/406/406
f 406/406/406 407/407/407 405/405/405
f 407/407/407 406/406/406 408/408/408
f 408/408/408 409/409/409 407/407/407
f 411/411/411 410/410/410 412/412/412
f 412/412/412 413/413/413 411/411/411
f 413/413/413 412/412/412 414/414/414
f 414/414/414 415/415/415 413/413/413
f 415/415/415 414/414/414 416/416/416
usemtl Magical_Hats_3
f 417/417/417 418/418/418 419/419/419
f 419/419/419 420/420/420 417/417/417
f 418/418/418 421/421/421 422/422/422
f 422/422/422 419/419/419 418/418/418
f 421/421/421 423/423/423 424/424/424
f 424/424/424 422/422/422 421/421/421
f 423/423/423 425/425/425 426/426/426
f 426/426/426 424/424/424 423/423/423
f 425/425/425 427/427/427 428/428/428
f 428/428/428 426/426/426 425/425/425
f 429/429/429 430/430/430 431/431/431
f 431/431/431 432/432/432 429/429/429
f 430/430/430 433/433/433 434/434/434
f 434/434/434 431/431/431 430/430/430
f 433/433/433 435/435/435 436/436/436
f 436/436/436 434/434/434 433/433/433
f 435/435/435 437/437/437 438/438/438
f 438/438/438 436/436/436 435/435/435
f 437/437/437 439/439/439 440/440/440
f 440/440/440 438/438/438 437/437/437
f 439/439/439 441/441/441 442/442/442
f 442/442/442 440/440/440 439/439/439
f 441/441/441 443/443/443 444/444/444
f 444/444/444 442/442/442 441/441/441
f 443/443/443 445/445/445 446/446/446
f 446/446/446 444/444/444 443/443/443
f 445/445/445 447/447/447 448/448/448
f 448/448/448 446/446/446 445/445/445
f 447/447/447 449/449/449 450/450/450
f 450/450/450 448/448/448 447/447/447
f 449/449/449 451/451/451 452/452/452
f 452/452/452 450/450/450 449/449/449
f 451/451/451 453/453/453 454/454/454
f 454/454/454 452/452/452 451/451/451
f 453/453/453 417/417/417 420/420/420
f 420/420/420 454/454/454 453/453/453
f 420/420/420 419/419/419 455/455/455
f 455/455/455 456/456/456 420/420/420
f 419/419/419 422/422/422 457/457/457
f 457/457/457 455/455/455 419/419/419
f 422/422/422 424/424/424 458/458/458
f 458/458/458 457/457/457 422/422/422
f 424/424/424 426/426/426 459/459/459
f 459/459/459 458/458/458 424/424/424
f 426/426/426 428/428/428 460/460/460
f 460/460/460 459/459/459 426/426/426
f 432/432/432 431/431/431 461/461/461
f 461/461/461 462/462/462 432/432/432
f 431/431/431 434/434/434 463/463/463
f 463/463/463 461/461/461 431/431/431
f 434/434/434 436/436/436 464/464/464
f 464/464/464 463/463/463 434/434/434
f 436/436/436 438/438/438 465/465/465
f 465/465/465 464/464/464 436/436/436
f 438/438/438 440/440/440 466/466/466
f 466/466/466 465/465/465 438/438/438
f 440/440/440 442/442/442 467/467/467
f 467/467/467 466/466/466 440/440/440
f 442/442/442 444/444/444 468/468/468
f 468/468/468 467/467/467 442/442/442
f 444/444/444 446/446/446 469/469/469
f 469/469/469 468/468/468 444/444/444
f 446/446/446 448/448/448 470/470/470
f 470/470/470 469/469/469 446/446/446
f 448/448/448 450/450/450 471/471/471
f 471/471/471 470/470/470 448/448/448
f 450/450/450 452/452/452 472/472/472
f 472/472/472 471/471/471 450/450/450
f 452/452/452 454/454/454 473/473/473
f 473/473/473 472/472/472 452/452/452
f 454/454/454 420/420/420 456/456/456
f 456/456/456 473/473/473 454/454/454
f 456/456/456 455/455/455 474/474/474
f 474/474/474 475/475/475 456/456/456
f 455/455/455 457/457/457 476/476/476
f 476/476/476 474/474/474 455/455/455
f 457/457/457 458/458/458 477/477/477
f 477/477/477 476/476/476 457/457/457
f 458/458/458 459/459/459 478/478/478
f 478/478/478 477/477/477 458/458/458
f 459/459/459 460/460/460 479/479/479
f 479/479/479 478/478/478 459/459/459
f 462/462/462 461/461/461 480/480/480
f 480/480/480 481/481/481 462/462/462
f 461/461/461 463/463/463 482/482/482
f 482/482/482 480/480/480 461/461/461
f 463/463/463 464/464/464 483/483/483
f 483/483/483 482/482/482 463/463/463
f 464/464/464 465/465/465 484/484/484
f 484/484/484 483/483/483 464/464/464
f 465/465/465 466/466/466 485/485/485
f 485/485/485 484/484/484 465/465/465
f 466/466/466 467/467/467 486/486/486
f 486/486/486 485/485/485 466/466/466
f 467/467/467 468/468/468 487/487/487
f 487/487/487 486/486/486 467/467/467
f 468/468/468 469/469/469 488/488/488
f 488/488/488 487/487/487 468/468/468
f 469/469/469 470/470/470 489/489/489
f 489/489/489 488/488/488 469/469/469
f 470/470/470 471/471/471 490/490/490
f 490/490/490 489/489/489 470/470/470
f 471/471/471 472/472/472 491/491/491
f 491/491/491 490/490/490 471/471/471
f 472/472/472 473/473/473 492/492/492
f 492/492/492 491/491/491 472/472/472
f 473/473/473 456/456/456 475/475/475
f 475/475/475 492/492/492 473/473/473
f 475/475/475 474/474/474 493/493/493
f 493/493/493 494/494/494 475/475/475
f 474/474/474 476/476/476 495/495/495
f 495/495/495 493/493/493 474/474/474
f 476/476/476 477/477/477 496/496/496
f 496/496/496 495/495/495 476/476/476
f 477/477/477 478/478/478 497/497/497
f 497/497/497 496/496/496 477/477/477
f 478/478/478 479/479/479 498/498/498
f 498/498/498 497/497/497 478/478/478
f 481/481/481 480/480/480 499/499/499
f 499/499/499 500/500/500 481/481/481
f 480/480/480 482/482/482 501/501/501
f 501/501/501 499/499/499 480/480/480
f 482/482/482 483/483/483 502/502/502
f 502/502/502 501/501/501 482/482/482
f 483/483/483 484/484/484 503/503/503
f 503/503/503 502/502/502 483/483/483
f 484/484/484 485/485/485 504/504/504
f 504/504/504 503/503/503 484/484/484
f 485/485/485 486/486/486 505/505/505
f 505/505/505 504/504/504 485/485/485
f 486/486/486 487/487/487 506/506/506
f 506/506/506 505/505/505 486/486/486
f 487/487/487 488/488/488 507/507/507
f 507/507/507 506/506/506 487/487/487
f 488/488/488 489/489/489 508/508/508
f 508/508/508 507/507/507 488/488/488
f 489/489/489 490/490/490 509/509/509
f 509/509/509 508/508/508 489/489/489
f 490/490/490 491/491/491 510/510/510
f 510/510/510 509/509/509 490/490/490
f 491/491/491 492/492/492 511/511/511
f 511/511/511 510/510/510 491/491/491
f 492/492/492 475/475/475 494/494/494
f 494/494/494 511/511/511 492/492/492
f 512/512/512 514/514/514 515/515/515
f 514/514/514 516/516/516 517/517/517
f 517/517/517 515/515/515 514/514/514
f 513/513/513 515/515/515 519/519/519
f 519/519/519 518/518/518 513/513/513
